<svg xmlns="http://www.w3.org/2000/svg" version="1.1" xmlns:xlink="http://www.w3.org/1999/xlink" xmlns:svgjs="http://svgjs.dev/svgjs" viewBox="0 0 800 800"><defs><linearGradient x1="50%" y1="0%" x2="50%" y2="100%" id="ffflurry-grad" gradientTransform="rotate(270)"><stop stop-color="hsl(238, 72%, 7%)" stop-opacity="1" offset="0%"></stop><stop stop-color="hsl(1.4, 100%, 67%)" stop-opacity="1" offset="45%"></stop><stop stop-color="hsl(212, 72%, 59%)" stop-opacity="1" offset="100%"></stop></linearGradient></defs><rect width="100%" height="100%" fill="hsl(238, 72%, 7%)"></rect><g fill="url(#ffflurry-grad)"><rect width="545" height="3" x="196.5" y="600.5" rx="1.5" transform="rotate(45, 469, 602)" opacity="0.10"></rect><rect width="103" height="3" x="683.5" y="344.5" rx="1.5" transform="rotate(45, 735, 346)" opacity="0.97"></rect><rect width="408" height="3" x="290" y="76.5" rx="1.5" transform="rotate(45, 494, 78)" opacity="0.59"></rect><rect width="281" height="3" x="66.5" y="21.5" rx="1.5" transform="rotate(45, 207, 23)" opacity="0.34"></rect><rect width="238" height="3" x="533" y="234.5" rx="1.5" transform="rotate(45, 652, 236)" opacity="0.35"></rect><rect width="77" height="3" x="707.5" y="298.5" rx="1.5" transform="rotate(45, 746, 300)" opacity="0.62"></rect><rect width="333" height="3" x="392.5" y="565.5" rx="1.5" transform="rotate(45, 559, 567)" opacity="0.51"></rect><rect width="163" height="3" x="-35.5" y="54.5" rx="1.5" transform="rotate(45, 46, 56)" opacity="0.35"></rect><rect width="373" height="3" x="484.5" y="61.5" rx="1.5" transform="rotate(45, 671, 63)" opacity="0.76"></rect><rect width="417" height="3" x="-84.5" y="46.5" rx="1.5" transform="rotate(45, 124, 48)" opacity="0.23"></rect><rect width="260" height="3" x="574" y="122.5" rx="1.5" transform="rotate(45, 704, 124)" opacity="0.99"></rect><rect width="259" height="3" x="118.5" y="116.5" rx="1.5" transform="rotate(45, 248, 118)" opacity="0.20"></rect><rect width="496" height="3" x="337" y="667.5" rx="1.5" transform="rotate(45, 585, 669)" opacity="0.47"></rect><rect width="146" height="3" x="-23" y="165.5" rx="1.5" transform="rotate(45, 50, 167)" opacity="0.63"></rect><rect width="302" height="3" x="25" y="89.5" rx="1.5" transform="rotate(45, 176, 91)" opacity="0.22"></rect><rect width="592" height="3" x="100" y="527.5" rx="1.5" transform="rotate(45, 396, 529)" opacity="0.97"></rect><rect width="498" height="3" x="-115" y="364.5" rx="1.5" transform="rotate(45, 134, 366)" opacity="0.45"></rect><rect width="527" height="3" x="235.5" y="742.5" rx="1.5" transform="rotate(45, 499, 744)" opacity="0.19"></rect><rect width="132" height="3" x="485" y="32.5" rx="1.5" transform="rotate(45, 551, 34)" opacity="0.44"></rect><rect width="704" height="3" x="-308" y="605.5" rx="1.5" transform="rotate(45, 44, 607)" opacity="0.29"></rect><rect width="127" height="3" x="705.5" y="260.5" rx="1.5" transform="rotate(45, 769, 262)" opacity="0.51"></rect><rect width="402" height="3" x="50" y="764.5" rx="1.5" transform="rotate(45, 251, 766)" opacity="0.70"></rect><rect width="124" height="3" x="285" y="120.5" rx="1.5" transform="rotate(45, 347, 122)" opacity="0.84"></rect><rect width="515" height="3" x="466.5" y="416.5" rx="1.5" transform="rotate(45, 724, 418)" opacity="0.54"></rect><rect width="535" height="3" x="49.5" y="600.5" rx="1.5" transform="rotate(45, 317, 602)" opacity="0.13"></rect><rect width="391" height="3" x="62.5" y="187.5" rx="1.5" transform="rotate(45, 258, 189)" opacity="0.33"></rect><rect width="225" height="3" x="614.5" y="738.5" rx="1.5" transform="rotate(45, 727, 740)" opacity="0.82"></rect><rect width="336" height="3" x="573" y="204.5" rx="1.5" transform="rotate(45, 741, 206)" opacity="0.12"></rect><rect width="289" height="3" x="634.5" y="59.5" rx="1.5" transform="rotate(45, 779, 61)" opacity="0.99"></rect><rect width="358" height="3" x="446" y="496.5" rx="1.5" transform="rotate(45, 625, 498)" opacity="0.36"></rect><rect width="298" height="3" x="206" y="418.5" rx="1.5" transform="rotate(45, 355, 420)" opacity="0.29"></rect><rect width="346" height="3" x="339" y="258.5" rx="1.5" transform="rotate(45, 512, 260)" opacity="0.79"></rect><rect width="375" height="3" x="316.5" y="455.5" rx="1.5" transform="rotate(45, 504, 457)" opacity="0.19"></rect><rect width="396" height="3" x="572" y="133.5" rx="1.5" transform="rotate(45, 770, 135)" opacity="1.00"></rect><rect width="515" height="3" x="350.5" y="758.5" rx="1.5" transform="rotate(45, 608, 760)" opacity="0.81"></rect><rect width="734" height="3" x="-325" y="310.5" rx="1.5" transform="rotate(45, 42, 312)" opacity="0.17"></rect><rect width="249" height="3" x="174.5" y="776.5" rx="1.5" transform="rotate(45, 299, 778)" opacity="0.26"></rect><rect width="644" height="3" x="-36" y="499.5" rx="1.5" transform="rotate(45, 286, 501)" opacity="0.47"></rect><rect width="393" height="3" x="-67.5" y="244.5" rx="1.5" transform="rotate(45, 129, 246)" opacity="0.18"></rect><rect width="253" height="3" x="301.5" y="158.5" rx="1.5" transform="rotate(45, 428, 160)" opacity="0.79"></rect><rect width="831" height="3" x="-365.5" y="465.5" rx="1.5" transform="rotate(45, 50, 467)" opacity="0.41"></rect><rect width="342" height="3" x="367" y="180.5" rx="1.5" transform="rotate(45, 538, 182)" opacity="0.27"></rect><rect width="626" height="3" x="-78" y="293.5" rx="1.5" transform="rotate(45, 235, 295)" opacity="0.33"></rect><rect width="86" height="3" x="224" y="50.5" rx="1.5" transform="rotate(45, 267, 52)" opacity="0.33"></rect><rect width="400" height="3" x="215" y="283.5" rx="1.5" transform="rotate(45, 415, 285)" opacity="0.14"></rect><rect width="305" height="3" x="260.5" y="704.5" rx="1.5" transform="rotate(45, 413, 706)" opacity="0.85"></rect><rect width="437" height="3" x="118.5" y="270.5" rx="1.5" transform="rotate(45, 337, 272)" opacity="0.09"></rect><rect width="116" height="3" x="495" y="110.5" rx="1.5" transform="rotate(45, 553, 112)" opacity="0.09"></rect><rect width="350" height="3" x="269" y="210.5" rx="1.5" transform="rotate(45, 444, 212)" opacity="0.08"></rect><rect width="208" height="3" x="307" y="40.5" rx="1.5" transform="rotate(45, 411, 42)" opacity="0.98"></rect><rect width="116" height="3" x="578" y="15.5" rx="1.5" transform="rotate(45, 636, 17)" opacity="0.08"></rect><rect width="670" height="3" x="-121" y="595.5" rx="1.5" transform="rotate(45, 214, 597)" opacity="0.25"></rect><rect width="162" height="3" x="506" y="300.5" rx="1.5" transform="rotate(45, 587, 302)" opacity="0.24"></rect><rect width="286" height="3" x="70" y="697.5" rx="1.5" transform="rotate(45, 213, 699)" opacity="0.37"></rect><rect width="502" height="3" x="84" y="35.5" rx="1.5" transform="rotate(45, 335, 37)" opacity="0.41"></rect><rect width="267" height="3" x="491.5" y="149.5" rx="1.5" transform="rotate(45, 625, 151)" opacity="0.35"></rect><rect width="489" height="3" x="-210.5" y="729.5" rx="1.5" transform="rotate(45, 34, 731)" opacity="0.34"></rect><rect width="195" height="3" x="47.5" y="518.5" rx="1.5" transform="rotate(45, 145, 520)" opacity="0.60"></rect><rect width="256" height="3" x="355" y="20.5" rx="1.5" transform="rotate(45, 483, 22)" opacity="0.68"></rect><rect width="319" height="3" x="287.5" y="107.5" rx="1.5" transform="rotate(45, 447, 109)" opacity="0.69"></rect><rect width="152" height="3" x="52" y="645.5" rx="1.5" transform="rotate(45, 128, 647)" opacity="0.60"></rect><rect width="169" height="3" x="662.5" y="499.5" rx="1.5" transform="rotate(45, 747, 501)" opacity="0.59"></rect><rect width="134" height="3" x="563" y="376.5" rx="1.5" transform="rotate(45, 630, 378)" opacity="0.31"></rect><rect width="459" height="3" x="-128.5" y="751.5" rx="1.5" transform="rotate(45, 101, 753)" opacity="0.09"></rect><rect width="395" height="3" x="105.5" y="681.5" rx="1.5" transform="rotate(45, 303, 683)" opacity="0.41"></rect><rect width="98" height="3" x="712" y="25.5" rx="1.5" transform="rotate(45, 761, 27)" opacity="0.88"></rect><rect width="290" height="3" x="205" y="757.5" rx="1.5" transform="rotate(45, 350, 759)" opacity="0.24"></rect><rect width="346" height="3" x="590" y="625.5" rx="1.5" transform="rotate(45, 763, 627)" opacity="0.97"></rect><rect width="403" height="3" x="475.5" y="605.5" rx="1.5" transform="rotate(45, 677, 607)" opacity="0.54"></rect><rect width="567" height="3" x="-115.5" y="168.5" rx="1.5" transform="rotate(45, 168, 170)" opacity="0.62"></rect><rect width="345" height="3" x="42.5" y="425.5" rx="1.5" transform="rotate(45, 215, 427)" opacity="0.26"></rect><rect width="319" height="3" x="172.5" y="345.5" rx="1.5" transform="rotate(45, 332, 347)" opacity="0.89"></rect><rect width="354" height="3" x="309" y="360.5" rx="1.5" transform="rotate(45, 486, 362)" opacity="0.44"></rect><rect width="167" height="3" x="632.5" y="32.5" rx="1.5" transform="rotate(45, 716, 34)" opacity="0.85"></rect><rect width="94" height="3" x="126" y="759.5" rx="1.5" transform="rotate(45, 173, 761)" opacity="0.18"></rect><rect width="333" height="3" x="164.5" y="205.5" rx="1.5" transform="rotate(45, 331, 207)" opacity="0.07"></rect><rect width="325" height="3" x="444.5" y="62.5" rx="1.5" transform="rotate(45, 607, 64)" opacity="0.73"></rect></g></svg>